<svg width="50" height="50" viewBox="0 0 50 50" fill="none" xmlns="http://www.w3.org/2000/svg">
<path d="M42.7084 5.20825H7.29169L10.4167 40.6249L25 44.7916L39.5834 40.6249L42.7084 5.20825Z" fill="#0277BD"/>
<path d="M25 8.33325V41.5624L36.6667 38.2291L39.2708 8.33325H25Z" fill="#039BE5"/>
<path d="M34.4792 13.5417H25V17.7084H30.1042L29.7917 21.8751H25V26.0417H29.5833L29.2708 30.7292L25 32.1876V36.5626L33.2292 33.8542L33.9583 21.8751L34.4792 13.5417Z" fill="white"/>
<path d="M25 13.5417V17.7084H15.7292L15.4167 13.5417H25ZM20.2084 21.8751L20.4167 26.0417H25V21.8751H20.2084ZM20.625 28.1251H16.4584L16.7709 33.8542L25 36.5626V32.1876L20.7292 30.7292L20.625 28.1251Z" fill="#EEEEEE"/>
</svg>
