<svg width="46" height="46" viewBox="0 0 46 46" fill="none" xmlns="http://www.w3.org/2000/svg">
<path d="M24.9167 16.2917H17.25C13.5451 16.2917 10.5417 13.2882 10.5417 9.58333C10.5417 5.87842 13.5451 2.875 17.25 2.875H24.9167V16.2917Z" fill="#E64A19"/>
<path d="M23.9584 29.7084H17.25C13.5451 29.7084 10.5417 26.705 10.5417 23.0001C10.5417 19.2952 13.5451 16.2917 17.25 16.2917H23.9584V29.7084Z" fill="#7C4DFF"/>
<path d="M17.25 43.1249C13.5451 43.1249 10.5417 40.1215 10.5417 36.4166C10.5417 32.7117 13.5451 29.7083 17.25 29.7083H23.9584V36.4166C23.9584 40.1215 20.9549 43.1249 17.25 43.1249Z" fill="#66BB6A"/>
<path d="M30.6666 16.2917H23.9583V2.875H30.6666C34.3716 2.875 37.375 5.87842 37.375 9.58333C37.375 13.2882 34.3716 16.2917 30.6666 16.2917Z" fill="#FF7043"/>
<path d="M30.6666 29.7084C34.3716 29.7084 37.375 26.705 37.375 23.0001C37.375 19.2952 34.3716 16.2917 30.6666 16.2917C26.9617 16.2917 23.9583 19.2952 23.9583 23.0001C23.9583 26.705 26.9617 29.7084 30.6666 29.7084Z" fill="#29B6F6"/>
</svg>
