<svg width="40" height="40" viewBox="0 0 40 40" fill="none" xmlns="http://www.w3.org/2000/svg">
<path d="M0 20C0 8.95433 8.95433 0 20 0C31.0457 0 40 8.95433 40 20C40 31.0457 31.0457 40 20 40C8.95433 40 0 31.0457 0 20Z" fill="#F37021"/>
<path d="M2 20C2 10.0589 10.0589 2 20 2C29.9411 2 38 10.0589 38 20C38 29.9411 29.9411 38 20 38C10.0589 38 2 29.9411 2 20Z" fill="url(#paint0_radial_464_235)"/>
<path fill-rule="evenodd" clip-rule="evenodd" d="M24.7897 12.5665C24.7897 11.5568 25.4887 10.9614 26.3948 10.9614C27.3527 10.9614 28 11.6086 28 12.5665C28 13.6021 27.3269 14.1717 26.369 14.1717C25.437 14.1717 24.7897 13.6021 24.7897 12.5665ZM12.1122 28.541L13.3549 23.8366H13.3551H18.3776L19.672 28.5668C19.6977 28.6703 19.7756 28.7006 19.9048 28.7006H22.4937C22.6232 28.7006 22.6491 28.6228 22.6232 28.4935L17.6267 11.5573C17.6007 11.4278 17.5489 11.402 17.4454 11.402H14.1576C14.0798 11.402 14.028 11.4538 14.028 11.5573C14.0021 12.334 13.9503 12.5791 13.8726 12.8638L9.41973 28.4676C9.39407 28.6488 9.41973 28.7006 9.57482 28.7006H11.8794C12.0346 28.7006 12.0865 28.6703 12.1122 28.541ZM17.235 19.3833L17.2351 19.3834C17.4295 20.1243 17.6043 20.7903 17.7303 21.2869H14.0281L14.0703 21.1285C14.7107 18.7201 15.511 15.7109 15.8404 13.9124H15.8663C16.1433 15.2243 16.7502 17.5363 17.235 19.3832V19.3833ZM25.1466 15.9522C25.0172 15.9522 24.9655 16.0039 24.9655 16.1334V28.4935C24.9655 28.6228 25.0172 28.7006 25.1726 28.7006H27.6085C27.7638 28.7006 27.7897 28.6488 27.7897 28.5194V16.1334C27.7897 16.0039 27.738 15.9522 27.6085 15.9522H25.1466Z" fill="#FF7F18"/>
<defs>
<radialGradient id="paint0_radial_464_235" cx="0" cy="0" r="1" gradientUnits="userSpaceOnUse" gradientTransform="translate(16.3525 13.9917) scale(23.4707)">
<stop stop-color="#1C0A00" stop-opacity="0.85"/>
<stop offset="0.767" stop-color="#1C0A00"/>
</radialGradient>
</defs>
</svg>
