<svg width="50" height="50" viewBox="0 0 50 50" fill="none" xmlns="http://www.w3.org/2000/svg">
<path d="M6.25 43.75V6.25H43.75V43.75H6.25Z" fill="#FFD600"/>
<path d="M30.7688 34.3196C31.4896 35.4905 32.273 36.6123 33.9323 36.6123C35.3261 36.6123 36.0573 35.9196 36.0573 34.9613C36.0573 33.8144 35.3011 33.4071 33.7678 32.7394L32.9271 32.3811C30.5011 31.3519 28.8876 30.0623 28.8876 27.3384C28.8876 24.828 30.8094 22.9175 33.8126 22.9175C35.9511 22.9175 37.4876 23.6582 38.5959 25.5978L35.9771 27.2717C35.4011 26.2425 34.7782 25.8373 33.8126 25.8373C32.8271 25.8373 32.2032 26.4592 32.2032 27.2717C32.2032 28.2759 32.8282 28.6821 34.2709 29.304L35.1115 29.6623C37.9709 30.88 39.5834 32.1238 39.5834 34.9196C39.5834 37.9321 37.2042 39.5832 34.0105 39.5832C30.8865 39.5832 29.1126 38.0155 28.1251 36.0748L30.7688 34.3196ZM18.7 34.405C19.2271 35.3488 20.0282 36.0748 21.1803 36.0748C22.2823 36.0748 22.9167 35.6394 22.9167 33.9467V22.9165H26.3886V34.48C26.3886 37.9873 24.3542 39.5832 21.3834 39.5832C18.699 39.5832 16.7615 37.7644 15.9719 36.0748L18.7 34.405Z" fill="#000001"/>
</svg>
