<?xml version="1.0" encoding="utf-8"?>
<!-- Generator: Adobe Illustrator 24.1.0, SVG Export Plug-In . SVG Version: 6.00 Build 0)  -->
<svg version="1.1" id="Layer_1" xmlns="http://www.w3.org/2000/svg" xmlns:xlink="http://www.w3.org/1999/xlink" x="0px" y="0px"
	 viewBox="0 0 50 50" style="enable-background:new 0 0 50 50;" xml:space="preserve">
<style type="text/css">
	.st0{fill:url(#SVGID_1_);}
</style>
<linearGradient id="SVGID_1_" gradientUnits="userSpaceOnUse" x1="0" y1="25" x2="50" y2="25">
	<stop  offset="0" style="stop-color:#840CD8"/>
	<stop  offset="1" style="stop-color:#FB4409"/>
</linearGradient>
<path class="st0" d="M25,0C11.2,0,0,11.2,0,25s11.2,25,25,25s25-11.2,25-25S38.8,0,25,0z M15.6,11.3c1.8,0,2.9,1.2,2.9,2.7
	s-1.2,2.7-3.1,2.7c-1.8,0-2.9-1.2-2.9-2.7S13.7,11.3,15.6,11.3z M18.8,35.4h-6.3V18.8h6.3V35.4z M39.6,35.4h-5.9v-9.1
	c0-2.5-1.6-3.1-2.2-3.1c-0.6,0-2.6,0.4-2.6,3.1c0,0.4,0,9.1,0,9.1h-6.1V18.8H29v2.3c0.8-1.4,2.4-2.3,5.3-2.3c2.9,0,5.3,2.3,5.3,7.6
	V35.4z"/>
</svg>
