<?xml version="1.0" encoding="utf-8"?>
<!-- Generator: Adobe Illustrator 24.1.0, SVG Export Plug-In . SVG Version: 6.00 Build 0)  -->
<svg version="1.1" id="Layer_1" xmlns="http://www.w3.org/2000/svg" xmlns:xlink="http://www.w3.org/1999/xlink" x="0px" y="0px"
	 viewBox="0 0 85 50" style="enable-background:new 0 0 85 50;" xml:space="preserve">
<style type="text/css">
	.st0{fill:url(#SVGID_1_);}
</style>
<linearGradient id="SVGID_1_" gradientUnits="userSpaceOnUse" x1="1" y1="741.4252" x2="83.2521" y2="741.4252" gradientTransform="matrix(1 0 0 1 0 -716.4252)">
	<stop  offset="0" style="stop-color:#840CD8"/>
	<stop  offset="1" style="stop-color:#FB4409"/>
</linearGradient>
<path class="st0" d="M20.5,13H36v1.2H21.9v9.4h13.2v1.2H21.9v10.3h14.3v1.2H20.5V13z M37.4,13H39l7.3,10.3L53.8,13L63.9,0L47.3,24.4
	l8.6,12h-1.7l-7.8-10.9l-7.9,10.9h-1.7l8.7-12L37.4,13z M56.5,14.3V13h17.7v1.2H66v22.1h-1.4v-22H56.5L56.5,14.3z M1,13h1.8l24.5,37
	L17.2,36.4L2.5,14.8v21.6H1V13z M74,34.8c-0.3,0-0.5-0.2-0.5-0.5s0.2-0.5,0.5-0.5s0.5,0.2,0.5,0.5l0,0C74.5,34.5,74.3,34.8,74,34.8
	L74,34.8z M75.4,33.4h0.8c0,0.4,0.3,0.7,0.7,0.7c0,0,0,0,0.1,0c0.5,0,0.8-0.3,0.8-0.9v-3.6h0.8v3.6c0,1-0.6,1.6-1.5,1.6
	C76,34.8,75.4,34.3,75.4,33.4L75.4,33.4z M79.5,33.3h0.8c0.1,0.5,0.5,0.8,1.2,0.8c0.6,0,1.1-0.3,1.1-0.8c0-0.4-0.3-0.6-1-0.8
	L81,32.3c-0.9-0.2-1.3-0.7-1.3-1.4c0-0.9,0.7-1.5,1.8-1.5c1,0,1.8,0.6,1.8,1.5h-0.7c-0.1-0.5-0.5-0.8-1.1-0.8s-1,0.3-1,0.8
	c0,0.4,0.3,0.6,0.9,0.7l0.6,0.1c1,0.2,1.4,0.7,1.4,1.4c0,1-0.7,1.6-1.9,1.6C80.3,34.8,79.5,34.2,79.5,33.3L79.5,33.3z"/>
</svg>
