<svg width="40" height="40" viewBox="0 0 40 40" fill="none" xmlns="http://www.w3.org/2000/svg">
<path d="M0 20C0 8.95433 8.95433 0 20 0C31.0457 0 40 8.95433 40 20C40 31.0457 31.0457 40 20 40C8.95433 40 0 31.0457 0 20Z" fill="#31C5F0"/>
<path d="M2 20C2 10.0589 10.0589 2 20 2C29.9411 2 38 10.0589 38 20C38 29.9411 29.9411 38 20 38C10.0589 38 2 29.9411 2 20Z" fill="url(#paint0_radial_464_239)"/>
<path fill-rule="evenodd" clip-rule="evenodd" d="M10 11.5948C10 11.4903 10.2242 11.4119 10.3548 11.4119C11.3741 11.3597 12.8707 11.3335 14.4387 11.3335C18.8295 11.3335 20.5396 13.738 20.5396 16.8221C20.5396 20.847 17.6206 22.5719 14.04 22.5719C13.7122 22.5719 13.501 22.5642 13.3089 22.557C13.1487 22.5511 13.0018 22.5457 12.8116 22.5457V28.6313C12.8116 28.7622 12.7593 28.8145 12.6287 28.8145H10.1829C10.0522 28.8145 10 28.7622 10 28.6313V11.5948ZM12.8116 20.0106C13.1775 20.0366 13.465 20.0366 14.0922 20.0366C15.9479 20.0366 17.6908 19.3832 17.6908 16.8742C17.6908 14.8615 16.4445 13.8424 14.3275 13.8424C13.7003 13.8424 13.0991 13.8683 12.8116 13.8947V20.0105V20.0106ZM24.7727 19.2788C24.7727 18.7561 25.1908 18.1288 26.4453 18.1288C27.4648 18.1288 28.5028 18.3902 29.2083 18.8083C29.3652 18.8607 29.4436 18.7821 29.4436 18.6516V16.4818C29.4436 16.3772 29.4174 16.2467 29.2867 16.1682C28.764 15.9331 27.8044 15.724 26.4453 15.724C23.6751 15.724 22.0808 17.423 22.0808 19.4616C22.0808 21.291 23.0217 22.3887 25.2694 23.4604C26.8637 24.2966 27.2296 24.7933 27.2296 25.3683C27.2296 26.074 26.7068 26.5967 25.4523 26.5967C24.4068 26.5967 23.2541 26.3091 22.2609 25.6558C22.1563 25.5776 22.078 25.6298 22.078 25.7867V28.1127C22.078 28.2434 22.1041 28.3218 22.2087 28.3741C22.8882 28.766 24.0672 29.0537 25.4523 29.0537C28.0659 29.0537 30 27.6946 30 25.1592C30 23.4606 29.2159 22.3106 26.733 21.1083C25.0602 20.2457 24.7727 19.8538 24.7727 19.2788Z" fill="#31C5F0"/>
<defs>
<radialGradient id="paint0_radial_464_239" cx="0" cy="0" r="1" gradientUnits="userSpaceOnUse" gradientTransform="translate(16.3525 13.9918) scale(23.4707)">
<stop stop-color="#0E0E17" stop-opacity="0.85"/>
<stop offset="0.767" stop-color="#0E0E17"/>
</radialGradient>
</defs>
</svg>
