<svg width="52" height="52" viewBox="0 0 52 52" fill="none" xmlns="http://www.w3.org/2000/svg">
<g clip-path="url(#clip0_464_256)">
<path d="M44.7512 28.914C42.9343 28.9233 41.3598 29.3601 40.04 30.0101C39.5574 29.0471 39.0686 28.1995 38.9865 27.5692C38.8908 26.834 38.7795 26.3951 38.8949 25.5184C39.0104 24.6416 39.5179 23.4009 39.5096 23.3084C39.5023 23.2158 39.3962 22.7696 38.3479 22.7613C37.2996 22.754 36.4031 22.9631 36.297 23.2397C36.191 23.5164 35.9892 24.1393 35.8644 24.7893C35.6803 25.7399 33.7719 29.1303 32.6872 30.9035C32.3326 30.2108 32.031 29.6014 31.9686 29.1188C31.8729 28.3836 31.7616 27.9447 31.877 27.068C31.9925 26.1912 32.5 24.9505 32.4917 24.858C32.4844 24.7654 32.3783 24.3192 31.33 24.3109C30.2817 24.3036 29.3852 24.5127 29.2791 24.7893C29.173 25.066 29.0607 25.7128 28.8465 26.3389C28.6312 26.965 26.0936 32.6195 25.429 34.0848C25.09 34.8316 24.7957 35.4316 24.5877 35.8414C24.5866 35.8404 24.5866 35.8393 24.5866 35.8393C24.5866 35.8393 24.5742 35.8664 24.5513 35.9132C24.3734 36.2616 24.2674 36.455 24.2674 36.455C24.2674 36.455 24.2684 36.4581 24.2705 36.4623C24.129 36.7181 23.9782 36.9563 23.9034 36.9563C23.8514 36.9563 23.7463 36.274 23.9262 35.3391C24.3038 33.3776 25.2106 30.318 25.2023 30.2129C25.1982 30.1588 25.3708 29.6264 24.6095 29.3466C23.8701 29.0762 23.6059 29.5276 23.5383 29.5286C23.4728 29.5296 23.4239 29.6877 23.4239 29.6877C23.4239 29.6877 24.2486 26.2474 21.8514 26.2474C20.3538 26.2474 18.278 27.8864 17.2546 29.3716C16.6098 29.7231 15.2287 30.4771 13.7634 31.282C13.2007 31.5909 12.6266 31.9071 12.0817 32.2076C12.0442 32.1671 12.0078 32.1255 11.9694 32.0849C9.06359 28.9847 3.69303 26.7924 3.92079 22.6251C4.00399 21.1098 4.53023 17.1204 14.2418 12.2812C22.1967 8.31677 28.5657 9.40773 29.666 11.8257C31.2385 15.2796 26.2621 21.6995 18.0014 22.6251C14.8533 22.9776 13.1966 21.7577 12.7837 21.3032C12.35 20.8248 12.2855 20.803 12.1233 20.8935C11.8591 21.0401 12.0266 21.4624 12.1233 21.714C12.3698 22.3557 13.3817 23.4945 15.1081 24.0603C16.6265 24.5584 20.3216 24.832 24.7915 23.1035C29.797 21.167 33.7054 15.7808 32.5582 11.2787C31.3903 6.69957 23.7983 5.19468 16.613 7.74684C12.3365 9.26628 7.70743 11.651 4.37839 14.7637C0.42015 18.4661 -0.21009 21.688 0.0499104 23.0338C0.97447 27.8178 7.56703 30.9326 10.2076 33.2414C10.0776 33.3132 9.95487 33.3808 9.84359 33.4421C8.51967 34.0973 3.49439 36.7275 2.23703 39.5064C0.81119 42.6586 2.46375 44.9206 3.55887 45.2253C6.94927 46.1686 10.4291 44.4713 12.299 41.682C14.169 38.8938 13.9402 35.2632 13.0822 33.6054C13.0718 33.5846 13.0593 33.5648 13.0489 33.544C13.391 33.3412 13.7394 33.1364 14.0847 32.9336C14.7586 32.5384 15.4201 32.1692 15.9942 31.8561C15.6728 32.736 15.4378 33.7905 15.315 35.3141C15.1715 37.104 15.9047 39.4169 16.8646 40.3269C17.2869 40.7273 17.7954 40.7367 18.1178 40.7367C19.2348 40.7367 19.7444 39.808 20.305 38.7087C20.9934 37.3608 21.6039 35.7925 21.6039 35.7925C21.6039 35.7925 20.8374 40.0305 22.9258 40.0305C23.686 40.0305 24.4514 39.0436 24.7926 38.5412C24.7936 38.5464 24.7936 38.5496 24.7936 38.5496C24.7936 38.5496 24.8134 38.5173 24.8518 38.4508C24.9309 38.3301 24.9756 38.2532 24.9756 38.2532C24.9756 38.2532 24.9777 38.2448 24.9798 38.2313C25.2855 37.7009 25.9636 36.4904 26.9807 34.4936C28.2942 31.9144 29.5547 28.6841 29.5547 28.6841C29.5547 28.6841 29.6722 29.4745 30.056 30.7797C30.2817 31.5483 30.7622 32.398 31.1407 33.2123C30.836 33.6356 30.6488 33.8779 30.6488 33.8779C30.6488 33.8779 30.6509 33.882 30.654 33.8904C30.4106 34.2138 30.1371 34.5622 29.8511 34.9033C28.8142 36.1388 27.5787 37.5491 27.4134 37.9568C27.2189 38.4362 27.2646 38.7898 27.6411 39.0727C27.9157 39.2796 28.4055 39.3119 28.9172 39.2776C29.849 39.2152 30.5053 38.9832 30.8287 38.8428C31.3331 38.665 31.9207 38.3842 32.4719 37.9786C33.489 37.2308 34.1026 36.1607 34.0444 34.7432C34.0122 33.9621 33.7626 33.1884 33.4474 32.4572C33.54 32.3241 33.6326 32.191 33.7251 32.0548C35.3288 29.7096 36.5726 27.1335 36.5726 27.1335C36.5726 27.1335 36.6902 27.9239 37.0739 29.2291C37.2684 29.8905 37.6522 30.6112 37.9964 31.3184C36.4884 32.5436 35.5534 33.9673 35.2279 34.9012C34.6278 36.6287 35.0979 37.4118 35.9798 37.5896C36.3792 37.6708 36.9439 37.4877 37.3682 37.3078C37.8966 37.1331 38.531 36.8408 39.1238 36.4051C40.1409 35.6573 41.1195 34.61 41.0602 33.1925C41.0332 32.5477 40.8585 31.9071 40.6213 31.2914C41.8995 30.7589 43.5552 30.4625 45.6633 30.709C50.1862 31.2373 51.0734 34.0609 50.9038 35.2424C50.7343 36.4248 49.7858 37.0738 49.4686 37.2704C49.1514 37.4669 49.0547 37.5345 49.0818 37.6801C49.1202 37.8923 49.2669 37.884 49.5373 37.8382C49.9096 37.7758 51.9116 36.8772 51.9979 34.6953C52.1061 31.931 49.452 28.889 44.7512 28.914ZM9.89247 40.666C8.39487 42.2998 6.30135 42.9176 5.40383 42.3976C4.43455 41.836 4.81831 39.4294 6.65703 37.6957C7.77711 36.6391 9.22375 35.6656 10.1837 35.0656C10.4021 34.9345 10.7224 34.7411 11.1124 34.5071C11.1769 34.4707 11.2133 34.4499 11.2133 34.4499L11.2122 34.4478C11.2871 34.4031 11.3651 34.3563 11.4442 34.3084C12.1129 36.7774 11.465 38.951 9.89247 40.666ZM20.8052 33.2466C20.2831 34.5185 19.1911 37.7727 18.5266 37.598C17.9556 37.4482 17.6082 34.974 18.4122 32.5404C18.8167 31.3153 19.681 29.851 20.1895 29.2821C21.007 28.368 21.9076 28.0684 22.126 28.4397C22.4058 28.9119 21.1328 32.4489 20.8052 33.2466ZM29.822 37.5491C29.6005 37.6645 29.3977 37.7373 29.3041 37.6812C29.2344 37.6396 29.3956 37.4877 29.3956 37.4877C29.3956 37.4877 30.523 36.274 30.9681 35.7218C31.226 35.4004 31.5266 35.0188 31.8521 34.5924C31.8552 34.635 31.8562 34.6776 31.8562 34.7192C31.8521 36.1732 30.4481 37.1539 29.822 37.5491ZM36.7682 35.9652C36.6028 35.8476 36.6309 35.468 37.1727 34.2866C37.3859 33.8228 37.8716 33.0407 38.7171 32.294C38.8149 32.6008 38.8752 32.8951 38.8731 33.1696C38.8617 34.999 37.5565 35.6823 36.7682 35.9652Z" fill="#FB4409"/>
</g>
<defs>
<clipPath id="clip0_464_256">
<rect width="52" height="52" fill="white"/>
</clipPath>
</defs>
</svg>
