<svg width="40" height="40" viewBox="0 0 40 40" fill="none" xmlns="http://www.w3.org/2000/svg">
<path d="M0 20C0 8.95433 8.95433 0 20 0C31.0457 0 40 8.95433 40 20C40 31.0457 31.0457 40 20 40C8.95433 40 0 31.0457 0 20Z" fill="#FF2BC2"/>
<path d="M2 20C2 10.0589 10.0589 2 20 2C29.9411 2 38 10.0589 38 20C38 29.9411 29.9411 38 20 38C10.0589 38 2 29.9411 2 20Z" fill="url(#paint0_radial_464_269)"/>
<path fill-rule="evenodd" clip-rule="evenodd" d="M20.5887 27.0884L16.797 19.7354L20.372 12.8698C20.4397 12.748 20.3991 12.6667 20.2907 12.6667H18.1105C17.9767 12.6667 17.9355 12.7327 17.8692 12.8387L17.8667 12.8427C17.6426 13.3242 17.4154 13.8077 17.1877 14.2923C16.5762 15.5933 15.9609 16.9028 15.3887 18.2052H15.3616C14.7641 16.8708 14.1373 15.5585 13.5082 14.2411C13.2818 13.767 13.0551 13.2923 12.8293 12.8157C12.7887 12.6938 12.721 12.6667 12.5856 12.6667H10.2564C10.1617 12.6667 10.0804 12.7615 10.1617 12.8698L13.7502 19.9656L10.0397 27.102C9.97208 27.1832 9.98558 27.2916 10.121 27.2916H12.3689C12.4772 27.2916 12.5449 27.2509 12.6127 27.1426C13.4793 25.3552 14.3731 23.3781 15.1856 21.5635H15.2127C16.1199 23.4864 17.0001 25.3416 17.8667 27.1291C17.9345 27.2645 18.0022 27.3051 18.1512 27.3051H20.5074C20.6157 27.3051 20.6563 27.1967 20.5887 27.0884ZM21.4147 21.9292C21.4147 18.7739 23.4459 16.3094 26.7771 16.3094C27.0615 16.3094 27.2104 16.3094 27.4812 16.3365V12.8157C27.4812 12.7344 27.549 12.6802 27.6167 12.6802H29.7969C29.9052 12.6802 29.9323 12.7209 29.9323 12.7886V25.1656C29.9323 25.5312 29.9323 25.9916 30 26.4927C30 26.5874 30 26.601 29.9187 26.6416C28.7812 27.1832 27.5896 27.427 26.4521 27.427C23.5136 27.427 21.4147 25.6124 21.4147 21.9292ZM27.4812 18.4625C27.2782 18.3677 27.0208 18.3271 26.6958 18.3271C24.9897 18.3271 23.8522 19.6406 23.8522 21.8208C23.8522 24.3124 25.0167 25.3145 26.5333 25.3145C26.8583 25.3145 27.2104 25.2739 27.4677 25.1656V18.4625H27.4812Z" fill="#FED7F0"/>
<defs>
<radialGradient id="paint0_radial_464_269" cx="0" cy="0" r="1" gradientUnits="userSpaceOnUse" gradientTransform="translate(16.3525 13.9918) scale(23.4707)">
<stop stop-color="#0E0E17" stop-opacity="0.85"/>
<stop offset="0.767" stop-color="#0E0E17"/>
</radialGradient>
</defs>
</svg>
